<svg xmlns="http://www.w3.org/2000/svg" viewBox="0 0 64 64" role="img" aria-label="CryBotHunter">
  <defs>
    <linearGradient id="bg" x1="8" y1="4" x2="58" y2="62" gradientUnits="userSpaceOnUse">
      <stop offset="0" stop-color="#0a5cff"/>
      <stop offset="0.52" stop-color="#052a72"/>
      <stop offset="1" stop-color="#021125"/>
    </linearGradient>
    <linearGradient id="coin" x1="18" y1="13" x2="48" y2="48" gradientUnits="userSpaceOnUse">
      <stop offset="0" stop-color="#ffe28a"/>
      <stop offset="0.52" stop-color="#ffd166"/>
      <stop offset="1" stop-color="#d69b2d"/>
    </linearGradient>
    <linearGradient id="rise" x1="17" y1="47" x2="50" y2="18" gradientUnits="userSpaceOnUse">
      <stop offset="0" stop-color="#48f5a4"/>
      <stop offset="1" stop-color="#5ee7ff"/>
    </linearGradient>
    <filter id="glow" x="-30%" y="-30%" width="160%" height="160%">
      <feGaussianBlur stdDeviation="1.5" result="blur"/>
      <feMerge>
        <feMergeNode in="blur"/>
        <feMergeNode in="SourceGraphic"/>
      </feMerge>
    </filter>
  </defs>
  <rect width="64" height="64" rx="14" fill="url(#bg)"/>
  <path d="M10 42c10-3 16-18 27-15 7 2 10 11 18 8" fill="none" stroke="#7dd3fc" stroke-width="1.5" opacity=".28"/>
  <circle cx="32" cy="32" r="18" fill="url(#coin)" stroke="#fff0b3" stroke-width="2"/>
  <circle cx="32" cy="32" r="13" fill="none" stroke="#8a641a" stroke-width="1.8" opacity=".36"/>
  <path d="M22 40l8-8 6 5 10-15" fill="none" stroke="url(#rise)" stroke-width="5" stroke-linecap="round" stroke-linejoin="round" filter="url(#glow)"/>
  <path d="M45 22h-8m8 0v8" fill="none" stroke="#f6fbff" stroke-width="3" stroke-linecap="round" stroke-linejoin="round"/>
  <rect x="21" y="18" width="22" height="12" rx="6" fill="#03132f" stroke="#f6fbff" stroke-width="2"/>
  <circle cx="27" cy="24" r="2.1" fill="#5ee7ff"/>
  <circle cx="37" cy="24" r="2.1" fill="#5ee7ff"/>
  <path d="M32 18v-5m-5 0h10" fill="none" stroke="#f6fbff" stroke-width="2.4" stroke-linecap="round"/>
</svg>
